<svg xmlns="http://www.w3.org/2000/svg" viewBox="0 0 24 24" width="24" height="24">
  <path fill="#25D366" d="M12 2C6.486 2 2 6.486 2 12s4.486 10 10 10c5.514 0 10-4.486 10-10S17.514 2 12 2zm0 18c-4.411 0-8-3.589-8-8 0-1.368.346-2.675.965-3.822L5.243 9.28a8.047 8.047 0 0 0-1.315 4.372c0 4.411 3.589 8 8 8s8-3.589 8-8-3.589-8-8-8c-1.546 0-3.019.443-4.285 1.286l-2.29-1.016c1.173-.842 2.569-1.27 4.035-1.27 4.411 0 8 3.589 8 8s-3.589 8-8 8z"/>
  <path fill="#FFF" d="M16.985 13.518c-.26-.13-1.495-.753-1.734-.825-.24-.072-.414-.13-.597.13-.183.261-.714.825-.872 1.015-.158.19-.342.214-.597.081-.254-.13-1.127-.427-2.171-1.287-.914-.892-1.561-1.924-1.747-2.175-.185-.251-.035-.375.07-.496.104-.12.213-.26.326-.398.114-.138.211-.268.286-.381.075-.113.097-.211.066-.306-.031-.095-.095-.139-.212-.204-.117-.064-.26-.152-.41-.243-.15-.09-.285-.169-.397-.243-.112-.074-.19-.116-.261-.212-.07-.097-.054-.183.016-.257.07-.075.183-.121.293-.169.11-.049.248-.093.4-.14.152-.046.31-.078.487-.049.178.03.69.241 1.284.733.596.492 1.08 1.09 1.31 1.285.23.195.455.214.615.156.16-.058.73-.341 1.083-.674.352-.334.556-.71.585-.798.028-.088.004-.162-.057-.265-.05-.075-.104-.156-.152-.243-.049-.086-.08-.163-.104-.243-.024-.08-.033-.14-.016-.212.017-.072.047-.122.12-.198.072-.076.207-.162.45-.214.243-.052.53-.042.806.119.276.161.597.499.71.643.114.144.177.282.198.4.021.118-.009.214-.098.316-.088.101-.298.303-.42.421-.12.117-.232.213-.324.304-.093.09-.175.159-.256.275-.08.116-.117.197-.159.314-.042.117-.053.218-.004.328.048.11.171.225.326.339.154.115.358.198.608.261.25.064.523.089.754.025.23-.064.452-.235.712-.436.26-.2.683-.603.763-.875.082-.272.083-.532.026-.7-.057-.168-.174-.293-.29-.4-.117-.106-.233-.184-.358-.283-.124-.1-.218-.192-.298-.297-.08-.104-.118-.2-.153-.291-.036-.092-.046-.17-.03-.258.016-.086.057-.155.134-.235.077-.081.218-.155.418-.186.201-.031.472-.005.766.122.294.128.618.355.743.518.126.162.173.314.184.426.01.112-.024.208-.122.318-.097.11-.298.337-.452.494-.155.157-.289.276-.379.372-.09.097-.156.174-.203.267-.047.092-.078.203-.074.328.004.126.037.23.09.32.053.09.124.16.217.242.092.082.208.176.368.258.16.082.362.134.547.108.184-.026.537-.174.84-.486.305-.313.585-.748.705-1.01.12-.261.154-.532.117-.772-.036-.24-.144-.447-.31-.627-.167-.18-.392-.305-.692-.418-.3-.113-.67-.134-.923-.09z"/>
</svg>